<svg width="41" height="40" viewBox="0 0 41 40" fill="none" xmlns="http://www.w3.org/2000/svg">
<g clip-path="url(#clip0_1182_24701)">
<path d="M30.4001 29.8994C27.5511 32.071 24.0819 33.2741 20.5001 33.3327C8.83342 33.3327 2.16675 19.9993 2.16675 19.9993C4.2399 16.1358 7.11531 12.7604 10.6001 10.0993M17.0001 7.06602C18.1473 6.79748 19.3219 6.66325 20.5001 6.66602C32.1667 6.66602 38.8334 19.9993 38.8334 19.9993C37.8217 21.892 36.6152 23.6739 35.2334 25.316M24.0334 23.5327C23.5757 24.0239 23.0237 24.4179 22.4103 24.6912C21.797 24.9645 21.1349 25.1114 20.4636 25.1233C19.7922 25.1351 19.1254 25.0116 18.5028 24.7602C17.8802 24.5087 17.3146 24.1344 16.8398 23.6596C16.365 23.1848 15.9907 22.6193 15.7393 21.9967C15.4878 21.3741 15.3643 20.7072 15.3761 20.0359C15.388 19.3645 15.5349 18.7024 15.8082 18.0891C16.0815 17.4758 16.4755 16.9238 16.9667 16.466M2.16675 1.66602L38.8334 38.3327" stroke="url(#paint0_linear_1182_24701)" stroke-width="3" stroke-linecap="round" stroke-linejoin="round"/>
</g>
<defs>
<linearGradient id="paint0_linear_1182_24701" x1="20.5001" y1="1.66602" x2="20.5001" y2="38.3327" gradientUnits="userSpaceOnUse">
<stop stop-color="#904690"/>
<stop offset="1" stop-color="#6730C1"/>
</linearGradient>
<clipPath id="clip0_1182_24701">
<rect width="40" height="40" fill="white" transform="translate(0.5)"/>
</clipPath>
</defs>
</svg>
