<svg width="41" height="40" viewBox="0 0 41 40" fill="none" xmlns="http://www.w3.org/2000/svg">
<path fill-rule="evenodd" clip-rule="evenodd" d="M5.59163 18.3327H12.2502C12.6239 13.7274 14.1653 9.30672 16.7096 5.48239C10.7814 7.02597 6.28009 12.1047 5.59163 18.3327ZM20.5001 5.91735C17.7173 9.50257 16.0147 13.8107 15.5961 18.3327H25.4041C24.9854 13.8107 23.2829 9.50257 20.5001 5.91735ZM25.4041 21.666C24.9854 26.188 23.2829 30.4961 20.5001 34.0813C17.7173 30.4961 16.0147 26.188 15.5961 21.666H25.4041ZM12.2502 21.666H5.59163C6.28009 27.894 10.7814 32.9727 16.7096 34.5163C14.1652 30.692 12.6239 26.2713 12.2502 21.666ZM24.2906 34.5163C26.8349 30.692 28.3763 26.2713 28.7499 21.666H35.4085C34.7201 27.894 30.2187 32.9727 24.2906 34.5163ZM35.4085 18.3327H28.7499C28.3763 13.7274 26.8349 9.30672 24.2906 5.48239C30.2187 7.02597 34.7201 12.1047 35.4085 18.3327ZM2.16675 19.9993C2.16675 9.87413 10.3749 1.66602 20.5001 1.66602C30.6253 1.66602 38.8334 9.87413 38.8334 19.9993C38.8334 30.1246 30.6253 38.3327 20.5001 38.3327C10.3749 38.3327 2.16675 30.1246 2.16675 19.9993Z" fill="url(#paint0_linear_1182_24708)"/>
<defs>
<linearGradient id="paint0_linear_1182_24708" x1="20.5001" y1="1.66602" x2="20.5001" y2="38.3327" gradientUnits="userSpaceOnUse">
<stop stop-color="#8B4017"/>
<stop offset="1" stop-color="#961535"/>
</linearGradient>
</defs>
</svg>
