<svg width="41" height="40" viewBox="0 0 41 40" fill="none" xmlns="http://www.w3.org/2000/svg">
<path d="M12.1667 18.334V11.6673C12.1667 9.45718 13.0446 7.33756 14.6074 5.77476C16.1702 4.21196 18.2899 3.33398 20.5 3.33398C22.7101 3.33398 24.8298 4.21196 26.3926 5.77476C27.9554 7.33756 28.8333 9.45718 28.8333 11.6673V18.334M8.83333 18.334H32.1667C34.0076 18.334 35.5 19.8264 35.5 21.6673V33.334C35.5 35.1749 34.0076 36.6673 32.1667 36.6673H8.83333C6.99238 36.6673 5.5 35.1749 5.5 33.334V21.6673C5.5 19.8264 6.99238 18.334 8.83333 18.334Z" stroke="url(#paint0_linear_1182_24695)" stroke-width="3" stroke-linecap="round" stroke-linejoin="round"/>
<defs>
<linearGradient id="paint0_linear_1182_24695" x1="20.5" y1="3.33398" x2="20.5" y2="36.6673" gradientUnits="userSpaceOnUse">
<stop stop-color="#3352D1"/>
<stop offset="1" stop-color="#6929D1"/>
</linearGradient>
</defs>
</svg>
