<svg width="743" height="262" viewBox="0 0 743 262" fill="none" xmlns="http://www.w3.org/2000/svg">
<g clip-path="url(#clip0_2669_483)">
<path d="M251.24 225.479H224.24L224.24 30.4971L251.24 30.4971L251.24 132.497H238.967C239.892 124.433 243.039 116.785 248.058 110.406C253.412 103.548 260.333 98.0732 268.24 94.4425C276.825 90.4796 286.185 88.4796 295.64 88.588C308.731 88.588 319.87 91.3577 329.058 96.8971C338.192 102.405 345.458 110.533 349.913 120.224C354.877 131.37 357.299 143.481 357.003 155.679V225.497H330.058V158.406C330.148 150.861 328.662 143.38 325.694 136.443C322.934 129.995 318.456 124.429 312.749 120.352C306.54 116.085 299.134 113.907 291.603 114.133C284.203 114.019 276.921 116.005 270.603 119.861C264.385 123.736 259.416 129.323 256.294 135.952C252.826 143.231 251.096 151.217 251.24 159.279V225.479Z" fill="white"/>
<path d="M414.332 65.3966C411.268 65.4096 408.256 64.6063 405.605 63.0694C402.895 61.5528 400.637 59.3443 399.06 56.6694C397.453 53.9423 396.605 50.8347 396.605 47.6694C396.605 44.504 397.453 41.3964 399.06 38.6694C400.662 35.9761 402.912 33.7261 405.605 32.1239C408.232 30.5162 411.252 29.6667 414.332 29.6694C417.463 29.6287 420.54 30.4801 423.205 32.1239C427.182 34.6451 430.046 38.5898 431.212 43.1519C432.378 47.7141 431.757 52.5493 429.478 56.6694C428.003 59.3302 425.836 61.5419 423.205 63.0694C420.515 64.64 417.447 65.4448 414.332 65.3966ZM400.969 91.8512H427.969L427.969 225.488H400.969L400.969 91.8512Z" fill="white"/>
<path d="M498.299 208.029L455.208 91.8477H484.118L523.39 200.666C523.377 201.027 523.459 201.385 523.628 201.704C523.797 202.023 524.048 202.292 524.354 202.484C524.941 202.926 525.655 203.168 526.39 203.175C527.177 203.211 527.95 202.966 528.572 202.484C529.133 202.02 529.518 201.379 529.663 200.666L568.936 91.8477L597.572 91.8477L554.209 208.029C552.179 214.206 548.387 219.654 543.299 223.702C538.41 227.304 532.462 229.178 526.39 229.029C520.327 229.122 514.397 227.253 509.481 223.702C504.257 219.727 500.359 214.263 498.299 208.029Z" fill="white"/>
<path d="M680.239 228.472C667.528 228.706 654.982 225.569 643.876 219.381C633.284 213.465 624.488 204.796 618.421 194.29C612.129 183.218 608.927 170.659 609.148 157.926C609.021 145.722 611.926 133.676 617.603 122.872C623.04 112.433 631.21 103.667 641.239 97.5081C651.936 91.0979 664.226 87.8395 676.694 88.1081C690.149 88.1081 701.742 91.0596 711.476 96.9627C721.073 102.743 728.902 111.044 734.112 120.963C739.545 131.352 742.307 142.93 742.149 154.654V165.563L630.33 165.563L635.239 154.654C634.555 163.367 636.153 172.109 639.876 180.017C643.458 187.537 649.142 193.857 656.241 198.213C663.34 202.569 671.549 204.775 679.876 204.563C687.805 204.668 695.636 202.794 702.658 199.108C709.565 195.38 715.209 189.685 718.876 182.744L739.603 193.381C734.272 204.312 725.827 213.421 715.33 219.563C704.636 225.606 692.521 228.682 680.239 228.472ZM636.603 148.017H715.421C715.194 141.371 713.272 134.894 709.839 129.199C706.56 123.822 701.835 119.475 696.203 116.654C690.14 113.668 683.452 112.172 676.694 112.29C669.821 112.152 663.025 113.746 656.93 116.926C651.333 119.88 646.626 124.273 643.294 129.654C639.867 135.27 637.592 141.512 636.603 148.017Z" fill="white"/>
<path d="M152.054 183.669L152.054 78.3233C152.052 76.0528 151.453 73.8227 150.317 71.8568C149.181 69.891 147.547 68.2585 145.581 67.1233L54.3447 14.396C52.3796 13.2614 50.1503 12.6641 47.8811 12.6641C45.6119 12.6641 43.3827 13.2614 41.4175 14.396L-49.8007 67.1233C-51.7695 68.2557 -53.4047 69.8875 -54.5412 71.854C-55.6777 73.8205 -56.2752 76.052 -56.2734 78.3233L-56.2734 183.669C-56.2752 185.94 -55.6777 188.172 -54.5412 190.138C-53.4047 192.104 -51.7695 193.736 -49.8007 194.869L41.4175 247.596C43.3827 248.731 45.6119 249.328 47.8811 249.328C50.1503 249.328 52.3796 248.731 54.3447 247.596L145.581 194.869C147.547 193.733 149.181 192.101 150.317 190.135C151.453 188.169 152.052 185.939 152.054 183.669Z" stroke="#E1FF01" stroke-width="25.4545" stroke-miterlimit="10"/>
<path d="M152.054 154.46L54.3447 98.0962C52.3795 96.9616 50.1503 96.3643 47.8811 96.3643C45.6119 96.3643 43.3827 96.9616 41.4175 98.0962L-56.2734 154.46" stroke="#E1FF01" stroke-width="25.4545" stroke-miterlimit="10"/>
</g>
<defs>
<clipPath id="clip0_2669_483">
<rect width="811.418" height="262" fill="white" transform="translate(-69)"/>
</clipPath>
</defs>
</svg>
