<svg width="130" height="10" viewBox="0 0 130 10" fill="none" xmlns="http://www.w3.org/2000/svg">
<path d="M1 5L1.3208 4.68616L1.6416 4.37426L1.96241 4.06622L2.28321 3.76393L2.60401 3.46927L2.92481 3.18404L3.24561 2.91001L3.56642 2.64886L3.88722 2.40221L4.20802 2.17157L4.52882 1.95838L4.84962 1.76393L5.17043 1.58944L5.49123 1.43597L5.81203 1.30448L6.13283 1.19577L6.45363 1.11052L6.77444 1.04925L7.09524 1.01233L7.41604 1L7.73684 1.01233L8.05764 1.04925L8.37845 1.11052L8.69925 1.19577L9.02005 1.30448L9.34085 1.43597L9.66165 1.58944L9.98246 1.76393L10.3033 1.95838L10.6241 2.17157L10.9449 2.40221L11.2657 2.64886L11.5865 2.91001L11.9073 3.18404L12.2281 3.46927L12.5489 3.76393L12.8697 4.06622L13.1905 4.37426L13.5113 4.68616L13.8321 5L14.1529 5.31384L14.4737 5.62574L14.7945 5.93378L15.1153 6.23607L15.4361 6.53073L15.7569 6.81596L16.0777 7.08999L16.3985 7.35114L16.7193 7.59779L17.0401 7.82843L17.3609 8.04162L17.6817 8.23607L18.0025 8.41056L18.3233 8.56403L18.6441 8.69552L18.9649 8.80423L19.2857 8.88948L19.6065 8.95075L19.9273 8.98767L20.2481 9L20.5689 8.98767L20.8897 8.95075L21.2105 8.88948L21.5313 8.80423L21.8521 8.69552L22.1729 8.56403L22.4937 8.41056L22.8145 8.23607L23.1353 8.04162L23.4561 7.82843L23.7769 7.59779L24.0977 7.35114L24.4185 7.08999L24.7393 6.81596L25.0602 6.53073L25.381 6.23607L25.7018 5.93378L26.0226 5.62574L26.3434 5.31384L26.6642 5L26.985 4.68616L27.3058 4.37426L27.6266 4.06622L27.9474 3.76393L28.2682 3.46927L28.589 3.18404L28.9098 2.91001L29.2306 2.64886L29.5514 2.40221L29.8722 2.17157L30.193 1.95838L30.5138 1.76393L30.8346 1.58944L31.1554 1.43597L31.4762 1.30448L31.797 1.19577L32.1178 1.11052L32.4386 1.04925L32.7594 1.01233L33.0802 1L33.401 1.01233L33.7218 1.04925L34.0426 1.11052L34.3634 1.19577L34.6842 1.30448L35.005 1.43597L35.3258 1.58944L35.6466 1.76393L35.9674 1.95838L36.2882 2.17157L36.609 2.40221L36.9298 2.64886L37.2506 2.91001L37.5714 3.18404L37.8922 3.46927L38.213 3.76393L38.5338 4.06622L38.8546 4.37426L39.1754 4.68616L39.4962 5L39.817 5.31384L40.1378 5.62574L40.4586 5.93378L40.7794 6.23607L41.1003 6.53073L41.4211 6.81596L41.7419 7.08999L42.0627 7.35114L42.3835 7.59779L42.7043 7.82843L43.0251 8.04162L43.3459 8.23607L43.6667 8.41056L43.9875 8.56403L44.3083 8.69552L44.6291 8.80423L44.9499 8.88948L45.2707 8.95075L45.5915 8.98767L45.9123 9L46.2331 8.98767L46.5539 8.95075L46.8747 8.88948L47.1955 8.80423L47.5163 8.69552L47.8371 8.56403L48.1579 8.41056L48.4787 8.23607L48.7995 8.04162L49.1203 7.82843L49.4411 7.59779L49.7619 7.35114L50.0827 7.08999L50.4035 6.81596L50.7243 6.53073L51.0451 6.23607L51.3659 5.93378L51.6867 5.62574L52.0075 5.31384L52.3283 5L52.6491 4.68616L52.9699 4.37426L53.2907 4.06622L53.6115 3.76393L53.9323 3.46927L54.2531 3.18404L54.5739 2.91001L54.8947 2.64886L55.2155 2.40221L55.5363 2.17157L55.8571 1.95838L56.1779 1.76393L56.4987 1.58944L56.8195 1.43597L57.1404 1.30448L57.4612 1.19577L57.782 1.11052L58.1028 1.04925L58.4236 1.01233L58.7444 1L59.0652 1.01233L59.386 1.04925L59.7068 1.11052L60.0276 1.19577L60.3484 1.30448L60.6692 1.43597L60.99 1.58944L61.3108 1.76393L61.6316 1.95838L61.9524 2.17157L62.2732 2.40221L62.594 2.64886L62.9148 2.91001L63.2356 3.18404L63.5564 3.46927L63.8772 3.76393L64.198 4.06622L64.5188 4.37426L64.8396 4.68616L65.1604 5L65.4812 5.31384L65.802 5.62574L66.1228 5.93378L66.4436 6.23607L66.7644 6.53073L67.0852 6.81596L67.406 7.08999L67.7268 7.35114L68.0476 7.59779L68.3684 7.82843L68.6892 8.04162L69.01 8.23607L69.3308 8.41056L69.6516 8.56403L69.9724 8.69552L70.2932 8.80423L70.614 8.88948L70.9348 8.95075L71.2556 8.98767L71.5764 9L71.8972 8.98767L72.218 8.95075L72.5388 8.88948L72.8596 8.80423L73.1805 8.69552L73.5013 8.56403L73.8221 8.41056L74.1429 8.23607L74.4637 8.04162L74.7845 7.82843L75.1053 7.59779L75.4261 7.35114L75.7469 7.08999L76.0677 6.81596L76.3885 6.53073L76.7093 6.23607L77.0301 5.93378L77.3509 5.62574L77.6717 5.31384L77.9925 5L78.3133 4.68616L78.6341 4.37426L78.9549 4.06622L79.2757 3.76393L79.5965 3.46927L79.9173 3.18404L80.2381 2.91001L80.5589 2.64886L80.8797 2.40221L81.2005 2.17157L81.5213 1.95838L81.8421 1.76393L82.1629 1.58944L82.4837 1.43597L82.8045 1.30448L83.1253 1.19577L83.4461 1.11052L83.7669 1.04925L84.0877 1.01233L84.4085 1L84.7293 1.01233L85.0501 1.04925L85.3709 1.11052L85.6917 1.19577L86.0125 1.30448L86.3333 1.43597L86.6541 1.58944L86.9749 1.76393L87.2957 1.95838L87.6165 2.17157L87.9373 2.40221L88.2581 2.64886L88.5789 2.91001L88.8997 3.18404L89.2206 3.46927L89.5414 3.76393L89.8622 4.06622L90.183 4.37426L90.5038 4.68616L90.8246 5L91.1454 5.31384L91.4662 5.62574L91.787 5.93378L92.1078 6.23607L92.4286 6.53073L92.7494 6.81596L93.0702 7.08999L93.391 7.35114L93.7118 7.59779L94.0326 7.82843L94.3534 8.04162L94.6742 8.23607L94.995 8.41056L95.3158 8.56403L95.6366 8.69552L95.9574 8.80423L96.2782 8.88948L96.599 8.95075L96.9198 8.98767L97.2406 9L97.5614 8.98767L97.8822 8.95075L98.203 8.88948L98.5238 8.80423L98.8446 8.69552L99.1654 8.56403L99.4862 8.41056L99.807 8.23607L100.128 8.04162L100.449 7.82843L100.769 7.59779L101.09 7.35114L101.411 7.08999L101.732 6.81596L102.053 6.53073L102.373 6.23607L102.694 5.93378L103.015 5.62574L103.336 5.31384L103.657 5L103.977 4.68616L104.298 4.37426L104.619 4.06622L104.94 3.76393L105.261 3.46927L105.581 3.18404L105.902 2.91001L106.223 2.64886L106.544 2.40221L106.865 2.17157L107.185 1.95838L107.506 1.76393L107.827 1.58944L108.148 1.43597L108.469 1.30448L108.789 1.19577L109.11 1.11052L109.431 1.04925L109.752 1.01233L110.073 1L110.393 1.01233L110.714 1.04925L111.035 1.11052L111.356 1.19577L111.677 1.30448L111.997 1.43597L112.318 1.58944L112.639 1.76393L112.96 1.95838L113.281 2.17157L113.602 2.40221L113.922 2.64886L114.243 2.91001L114.564 3.18404L114.885 3.46927L115.206 3.76393L115.526 4.06622L115.847 4.37426L116.168 4.68616L116.489 5L116.81 5.31384L117.13 5.62574L117.451 5.93378L117.772 6.23607L118.093 6.53073L118.414 6.81596L118.734 7.08999L119.055 7.35114L119.376 7.59779L119.697 7.82843L120.018 8.04162L120.338 8.23607L120.659 8.41056L120.98 8.56403L121.301 8.69552L121.622 8.80423L121.942 8.88948L122.263 8.95075L122.584 8.98767L122.905 9L123.226 8.98767L123.546 8.95075L123.867 8.88948L124.188 8.80423L124.509 8.69552L124.83 8.56403L125.15 8.41056L125.471 8.23607L125.792 8.04162L126.113 7.82843L126.434 7.59779L126.754 7.35114L127.075 7.08999L127.396 6.81596L127.717 6.53073L128.038 6.23607L128.358 5.93378L128.679 5.62574L129 5.31384" stroke="#A9AEB6" stroke-width="2" stroke-miterlimit="10" stroke-linecap="round" stroke-linejoin="round"/>
</svg>
